General

Format                           : MPEG-4
Format profile                   : Base Media
Codec ID                         : isom
File size                        : 62.1 MiB
Duration                         : 3mn 38s
Overall bit rate                 : 2 388 Kbps
Encoded date                     : UTC 2012-04-04 03:59:03
Tagged date                      : UTC 2012-04-04 03:59:03

Video
ID                               : 1
Format                           : AVC
Format/Info                      : Advanced Video Codec
Format profile                   : High@L3.0
Format settings, CABAC           : Yes
Format settings, ReFrames        : 2 frames
Codec ID                         : avc1
Codec ID/Info                    : Advanced Video Coding
Duration                         : 3mn 38s
Bit rate mode                    : Variable
Bit rate                         : 2 264 Kbps
Maximum bit rate                 : 4 103 Kbps
Width                            : 720 pixels
Height                           : 480 pixels
Display aspect ratio             : 16:9
Original display aspect ratio    : 16:9
Frame rate mode                  : Constant
Frame rate                       : 23.976 fps
Standard                         : NTSC
Color space                      : YUV
Chroma subsampling               : 4:2:0
Bit depth                        : 8 bits
Scan type                        : Progressive
Bits/(Pixel*Frame)               : 0.273
Stream size                      : 60.0 MiB (96%)
Writing library                  : x264 core 119 r2106 07efeb4


Audio
ID                               : 2
Format                           : AAC
Format/Info                      : Advanced Audio Codec
Format profile                   : LC
Codec ID                         : 40
Duration                         : 3mn 38s
Bit rate mode                    : Variable
Bit rate                         : 76.5 Kbps
Maximum bit rate                 : 83.1 Kbps
Channel(s)                       : 2 channels
Channel positions                : Front: L R
Sampling rate                    : 48.0 KHz
Compression mode                 : Lossy
Stream size                      : 1.99 MiB (3%)


